<?xml version="1.0" encoding="utf-8"?>
<svg version="1.1" xmlns:xlink="http://www.w3.org/1999/xlink" width="11px" height="10px" xmlns="http://www.w3.org/2000/svg">
  <g transform="matrix(1 0 0 1 -257 -364 )">
    <path d="M 10.2142857142857 6.66230366492147  C 10.7380952380952 7.08987783595113  11 7.60253054101222  11 8.20026178010471  C 11 8.71073298429319  10.7930952380952 9.13830715532286  10.3792857142857 9.48298429319372  C 9.96547619047619 9.82766143106457  9.45214285714286 10  8.83928571428572 10  C 8.13214285714286 10  7.51666666666667 9.78184991273997  6.99285714285714 9.34554973821989  L 0.887857142857143 4.26701570680628  C 0.295952380952381 3.7652705061082  0 3.17408376963351  0 2.4934554973822  C 0 1.79973821989529  0.288095238095238 1.21073298429319  0.864285714285714 0.726439790575916  C 1.44047619047619 0.242146596858639  2.145 0  2.97785714285714 0  C 3.80547619047619 0  4.52047619047619 0.246509598603838  5.12285714285714 0.739528795811518  L 9.87642857142857 4.70549738219895  C 9.92880952380952 4.74912739965096  9.955 4.79712041884817  9.955 4.84947643979058  C 9.955 4.91928446771379  9.87511904761905 5.0207242582897  9.71535714285714 5.15379581151833  C 9.55559523809524 5.28686736474695  9.43380952380953 5.35340314136126  9.35 5.35340314136126  C 9.28190476190476 5.35340314136126  9.22166666666667 5.33158813263525  9.16928571428571 5.28795811518325  L 4.40785714285714 1.31544502617801  C 3.99404761904762 0.979493891797556  3.52 0.81151832460733  2.98571428571429 0.81151832460733  C 2.43047619047619 0.81151832460733  1.96166666666667 0.975130890052356  1.57928571428571 1.30235602094241  C 1.19690476190476 1.62958115183246  1.00571428571429 2.02443280977312  1.00571428571429 2.4869109947644  C 1.00571428571429 2.94502617801047  1.20476190476191 3.33987783595113  1.60285714285714 3.67146596858639  L 7.7 8.7565445026178  C 8.03 9.03141361256545  8.40976190476191 9.16884816753927  8.83928571428572 9.16884816753927  C 9.17452380952381 9.16884816753927  9.45214285714286 9.07722513089005  9.67214285714286 8.89397905759162  C 9.89214285714286 8.71073298429319  10.0021428571429 8.47949389179756  10.0021428571429 8.20026178010471  C 10.0021428571429 7.84249563699825  9.83714285714286 7.5261780104712  9.50714285714286 7.25130890052356  L 4.94214285714286 3.44895287958115  C 4.80595238095238 3.34424083769634  4.64880952380952 3.29188481675393  4.47071428571429 3.29188481675393  C 4.31880952380952 3.29188481675393  4.19309523809524 3.33333333333333  4.09357142857143 3.41623036649215  C 3.99404761904762 3.49912739965096  3.94428571428571 3.60383944153578  3.94428571428571 3.7303664921466  C 3.94428571428571 3.86998254799302  4.0097619047619 3.99869109947644  4.14071428571429 4.11649214659686  L 7.36214285714286 6.79973821989529  C 7.41452380952381 6.84336823734729  7.44071428571429 6.8913612565445  7.44071428571428 6.94371727748691  C 7.44071428571429 7.01352530541012  7.35952380952381 7.11605584642234  7.19714285714286 7.25130890052356  C 7.03476190476191 7.38656195462478  6.91166666666667 7.45418848167539  6.82785714285714 7.45418848167539  C 6.765 7.45418848167539  6.70738095238095 7.43237347294939  6.655 7.38874345549738  L 3.43357142857143 4.70549738219895  C 3.10357142857143 4.43935427574171  2.93857142857143 4.11431064572426  2.93857142857143 3.7303664921466  C 2.93857142857143 3.37260034904014  3.08785714285714 3.06937172774869  3.38642857142857 2.82068062827225  C 3.685 2.57198952879581  4.04904761904762 2.44764397905759  4.47857142857143 2.44764397905759  C 4.93952380952381 2.44764397905759  5.3297619047619 2.58507853403141  5.64928571428571 2.85994764397906  L 10.2142857142857 6.66230366492147  Z " fill-rule="nonzero" fill="#3585fe" stroke="none" transform="matrix(1 0 0 1 257 364 )" />
  </g>
</svg>