<?xml version="1.0" encoding="utf-8"?>
<svg version="1.1" xmlns:xlink="http://www.w3.org/1999/xlink" width="4px" height="4px" xmlns="http://www.w3.org/2000/svg">
  <g transform="matrix(1 0 0 1 -263 -367 )">
    <path d="M 3.90572390572391 2.98989898989899  C 3.9685746352413 3.05274971941639  4 3.1290684624018  4 3.21885521885522  C 4 3.30864197530864  3.9685746352413 3.38496071829405  3.90572390572391 3.44781144781145  L 3.44781144781145 3.90572390572391  C 3.38496071829405 3.9685746352413  3.30864197530864 4  3.21885521885522 4  C 3.1290684624018 4  3.05274971941639 3.9685746352413  2.98989898989899 3.90572390572391  L 2 2.91582491582492  L 1.01010101010101 3.90572390572391  C 0.947250280583614 3.9685746352413  0.870931537598204 4  0.781144781144781 4  C 0.691358024691358 4  0.615039281705948 3.9685746352413  0.552188552188552 3.90572390572391  L 0.0942760942760943 3.44781144781145  C 0.0314253647586981 3.38496071829405  0 3.30864197530864  0 3.21885521885522  C 0 3.1290684624018  0.0314253647586981 3.05274971941639  0.0942760942760943 2.98989898989899  L 1.08417508417508 2  L 0.0942760942760943 1.01010101010101  C 0.0314253647586981 0.947250280583614  0 0.870931537598204  0 0.781144781144781  C 0 0.691358024691358  0.0314253647586981 0.615039281705948  0.0942760942760943 0.552188552188552  L 0.552188552188552 0.0942760942760943  C 0.615039281705948 0.0314253647586979  0.691358024691358 0  0.781144781144781 0  C 0.870931537598204 0  0.947250280583614 0.0314253647586979  1.01010101010101 0.0942760942760943  L 2 1.08417508417508  L 2.98989898989899 0.0942760942760943  C 3.05274971941639 0.0314253647586979  3.1290684624018 0  3.21885521885522 0  C 3.30864197530864 0  3.38496071829405 0.0314253647586979  3.44781144781145 0.0942760942760943  L 3.90572390572391 0.552188552188552  C 3.9685746352413 0.615039281705948  4 0.691358024691358  4 0.781144781144781  C 4 0.870931537598204  3.9685746352413 0.947250280583614  3.90572390572391 1.01010101010101  L 2.91582491582492 2  L 3.90572390572391 2.98989898989899  Z " fill-rule="nonzero" fill="#aaaaaa" stroke="none" transform="matrix(1 0 0 1 263 367 )" />
  </g>
</svg>